<svg width="1890.78" height="361.70000000000005" xmlns="http://www.w3.org/2000/svg">
 <g>
  <title>Layer 1</title>
  <path fill-rule="evenodd" fill="#fff" d="m1357.06979,316.09961a29.157,29.157 0 0 0 -7.02,19.4a25.273,25.273 0 0 0 26,26.1a26.459,26.459 0 0 0 19.71,-8.4c5.43,-5.5 8.15,-11.9 8.16,-19a25.224,25.224 0 0 0 -7.87,-18.9c-5.25,-5.1 -11.89,-7.6 -19.92,-7.6s-14.39,2.8 -19.06,8.4zm217.17,-93.2c9.07,-7.7 13.61,-17.3 13.63,-28.7q0.03,-20.55 -17.21,-33.9t-49.46,-13.3l-89.19,0c-2.83,0 -4.8,0.6 -5.95,1.7s-1.71,3.4 -1.71,6.7c-0.01,3.8 0.18,6.2 0.56,7.1c0.37,1 1.65,1.9 3.82,2.7c4.33,1.6 6.94,2.9 7.81,3.7s1.29,2.3 1.29,4.5l-0.21,159.1c-0.01,4.5 -3.11,8 -9.29,10.4c-2.94,1 -4.4,2.7 -4.41,4.9l-0.01,7.9c0,2.7 1.62,4.1 4.88,4.1l79.59,0q43.29,0 63.99,-16.4c13.79,-10.9 20.7,-27.4 20.73,-49.7c0.02,-14.6 -3.7,-26 -11.18,-34.3s-21.14,-15.3 -40.99,-20.9c13.13,-2.7 24.24,-7.8 33.31,-15.6zm-67.22,-61c6.62,0 11.42,1.9 14.4,5.6s4.46,11.9 4.44,24.6q-0.015,13.5 -0.76,22.5c-0.5,5.9 -2.3,10.1 -5.39,12.7c-3.1,2.5 -7.36,3.8 -12.78,3.8l-8.63,0l0.09,-69.2l8.63,0zm-0.11,84.2c4.77,0 8.38,0.7 10.82,2a10.882,10.882 0 0 1 5.12,5.4c0.97,2.3 1.61,9 1.92,20.2c0.31,11.3 0.47,18.4 0.46,21.6q-0.03,23.25 -0.94,33c-0.6,6.5 -2.62,10.8 -6.04,13s-10.12,3.3 -20.1,3.3l0.13,-98.5l8.63,0zm184.78,-82.9c3.02,0 5.74,1.5 8.16,4.6s5.3,8.6 8.64,16.5c1.85,4.4 3.75,7.1 5.72,8.2s5.89,1.7 11.79,1.7c5.24,0 7.87,-1.2 7.87,-3.6a17.945,17.945 0 0 0 -0.65,-3.5l-8.25,-34q-0.975,-4.05 -2.76,-5.1c-1.2,-0.7 -3.09,-1 -5.7,-1l-103.84,0c-3.15,0 -5.05,0.3 -5.7,1c-0.65,0.6 -0.98,2.7 -0.98,6.1c-0.01,4 0.29,6.6 0.88,7.7c0.6,1 2.52,2.1 5.78,3.2q7.155,2.55 7.31,5.1l-0.22,164.4c0,3.5 -2.99,6.2 -8.96,8.3c-3.91,1.4 -5.86,3.6 -5.87,6.7c-0.01,4.8 0.37,7.7 1.13,8.8q1.14,1.5 5.2,1.5l108.57,0c3.68,0 5.88,-0.6 6.59,-1.7s1.6,-4.4 2.68,-9.8l6.08,-29.9a23.876,23.876 0 0 0 0.66,-4.6c0,-3.6 -3.36,-5.3 -10.09,-5.3c-4.88,0 -8.3,0.7 -10.25,2.2s-3.86,4.7 -5.71,9.5c-4.47,11.5 -7.7,18.5 -9.71,20.9s-5.68,3.6 -11,3.6l-8.62,0l0.12,-90.8l12.7,0c2.38,0 4.15,0.5 5.28,1.6c1.14,1 2.3,3.9 3.49,8.6c1.19,5.1 2.4,8.2 3.65,9.2c1.25,1.2 3.71,1.7 7.4,1.7c5.64,0 9.01,-0.4 10.1,-1.3c1.08,-0.8 1.63,-2.6 1.63,-5.3l0.06,-43.9c0.01,-3.9 -0.56,-6.1 -1.7,-6.7c-1.14,-0.5 -5.99,-0.8 -14.56,-0.8a4.3,4.3 0 0 0 -3.83,1.8c-0.82,1.3 -1.88,5 -3.19,11.2c-0.77,3.6 -1.86,5.8 -3.27,6.9s-3.63,1.6 -6.67,1.6l-11.07,0l0.1,-75.3l11.01,0zm96.51,170.5c0,2.4 -0.45,4.2 -1.33,5.2s-2.97,2 -6.26,3.1c-3.41,1 -5.12,4 -5.13,8.9q0,6.3 1.21,7.5c0.82,0.9 2.64,1.4 5.47,1.4l71.74,0q5.22,0 6.69,-1.2q1.47,-1.05 1.48,-7.8c0.01,-3.5 -0.35,-5.8 -1.05,-6.9a8.426,8.426 0 0 0 -4.31,-2.9c-5.2,-1.8 -7.8,-5.1 -7.8,-10l0.23,-169.2l4.88,0c3.04,0 5.59,2.4 7.64,7.3a110.4,110.4 0 0 1 5.68,18.8c0.97,4.6 2.24,7.4 3.81,8.3c1.57,0.8 5.12,1.3 10.66,1.3q6.51,0 7.73,-2.1a12.415,12.415 0 0 0 1.23,-6.1a64.289,64.289 0 0 0 -0.32,-6.5l-2.73,-27.1c-0.43,-4.4 -1.02,-7 -1.78,-7.7s-2.88,-1 -6.35,-1l-119.44,0c-5.22,0 -8.47,0.5 -9.77,1.6s-2.06,3.5 -2.28,7.1l-2.02,30.7c-0.11,1.6 -0.17,3.2 -0.17,4.8c0,2.7 0.67,4.5 2.03,5.4s4.36,1.4 9.03,1.4c4.88,0 8.14,-0.6 9.76,-1.9s2.83,-4.4 3.6,-9.4c1.68,-11.5 3.28,-18.5 4.81,-21.1s3.49,-3.8 5.9,-3.8l7.39,0l-0.23,171.9z" class="cls-1" data-name=".BET" id="_.BET_"/>
  <path fill="#23ee88" fill-rule="evenodd" d="m288.86313,115.49961s-41.69,-52.5 -104.18,-47.9c-62.48,4.5 -118.08,61.6 -112.5,127c5.58,65.5 53.28,117.2 125.01,114.6s120.06,-41.2 141.67,-68.7c0,0 -35.19,119.5 -168.76,119.5c-86.45,0 -167.39,-73.8 -167.39,-175.8c0,-88 78.85,-183.8 194.48,-183.8c107.06,0 147.92,85.9 147.92,85.9l-56.25,29.2z" class="cls-2" data-name="s 3" id="s_3"/>
  <path fill="#fd0" fill-rule="evenodd" d="m203.44313,165.49961l-27.09,62.5l104.17,0s-12.31,38.3 -60.42,62.5c0,0 107.95,-19.4 145.84,-125l-162.5,0z" class="cls-3" data-name="s 4" id="s_4"/>
  <path fill="#fd0" fill-rule="evenodd" d="m1172.41979,361.39961q13.77,0 42.26,0.3q20.535,-42.3 42.52,-83.1l52.91,-96.8q26.58,-49.05 32.62,-59.4l2.42,-4.2q2.655,-4.35 2.66,-4.5c0.51,-16.7 1.28,-33 2.3,-49l-232.51,0c-0.49,16.9 -1.37,32.7 -2.66,47.7c37.19,-1.8 75.99,-2.6 116.4,-2.6c9.18,0 21.01,0 35.5,0.2l-14.25,26.7l-70.99,126.8l-56.03,98.2l46.85,-0.3z" class="cls-3" data-name="m_7" id="_117_7"/>
  <path fill="#fd0" fill-rule="evenodd" d="m915.27677,359.97104q13.77,0 42.26,0.3q20.535,-42.3 42.52,-83.1l52.91,-96.8q26.58,-49.05 32.62,-59.4l2.42,-4.2q2.655,-4.35 2.66,-4.5c0.51,-16.7 1.28,-33 2.3,-49l-232.51,0c-0.49,16.9 -1.37,32.7 -2.66,47.7c37.19,-1.8 75.99,-2.6 116.4,-2.6c9.18,0 21.01,0 35.5,0.2l-14.25,26.7l-70.99,126.8l-56.03,98.2l46.85,-0.3z" class="cls-3" data-name="m_7" id="svg_1"/>
  <path data-name="m_i" id="svg_i" fill="#23ee88" d="m400.80759,354.75245l0,-171.08184l64.22246,0l0,171.08184l-64.22246,0m32.11123,-194.83486q-16.23602,0 -25.97762,-7.51678q-9.74161,-7.51678 -9.74161,-20.14496q0,-12.32751 9.74161,-19.84429q9.74161,-7.51678 25.97762,-7.51678q15.87521,0 25.8333,7.51678q9.88593,7.51678 9.88593,19.84429q0,12.62819 -9.88593,20.14496q-9.95809,7.51678 -25.8333,7.51678z" stroke="null"/>
  <path id="svg_2" d="m506.10597,356.97232l0,-194.09761l58.36318,0l5.23256,33.77094l1.20751,0q12.88015,-19.44387 30.42935,-28.99525q17.4687,-9.55138 34.7764,-9.55138q10.46512,0 16.74419,1.15981q6.19857,1.22803 11.02863,2.93364l-11.67264,52.19145q-6.44007,-1.36448 -12.07514,-2.2514q-5.63507,-0.81869 -13.28265,-0.81869q-12.47764,0 -26.3238,7.84577q-13.92666,7.84577 -22.78176,26.94853l0,110.86419l-71.64583,0z" fill="#23ee88"/>
  <path fill="#23ee88" d="m763.5175,358.69998q-22.27145,0 -42.0683,-11.98361q-19.79685,-11.91629 -31.98428,-34.46971q-12.2493,-22.55342 -12.2493,-54.19554q0,-31.64211 12.2493,-54.06089q12.18743,-22.35145 31.98428,-34.33506q19.79685,-11.91629 42.0683,-11.91629q16.70359,0 32.16988,6.73236q15.46629,6.73236 27.52999,19.65851q12.0637,12.99346 19.1782,31.50747q7.11449,18.514 7.11449,42.4139q0,31.64211 -12.18743,54.19554q-12.2493,22.55342 -31.86055,34.46971q-19.67312,11.98361 -41.94457,11.98361m0,-48.47303q10.20775,0 16.88919,-6.39575q6.61957,-6.39575 9.71283,-18.17739q3.09326,-11.78164 3.09326,-27.6027q0,-15.82106 -3.09326,-27.46805q-3.09326,-11.57967 -9.71283,-17.97541q-6.68144,-6.39575 -16.88919,-6.39575q-10.20775,0 -16.82732,6.39575q-6.68144,6.39575 -9.89842,17.97541q-3.27885,11.64699 -3.27885,27.46805q0,15.82106 3.27885,27.6027q3.21699,11.78164 9.89842,18.17739q6.61957,6.39575 16.82732,6.39575z" data-name="m_o" id="svg_o"/>
 </g>

</svg>